<svg width="45" height="48" viewBox="0 0 45 48" fill="none" xmlns="http://www.w3.org/2000/svg">
<path d="M20.783 36.7743C18.5401 26.9617 24.1302 22.4103 30.0978 17.3969L20.2475 7.50496L0 27.7525L20.2475 48L20.9974 47.2502C20.963 47.2417 20.9301 47.2328 20.8984 47.2235C20.9407 47.2228 20.9832 47.2221 21.0262 47.2214L40.495 27.7525L37.8297 25.0714C35.4459 27.4737 32.6394 29.7578 30.5394 31.2322C31.5089 31.4827 32.0524 31.4711 33.0219 31.2322C31.3477 33.4837 29.4426 34.1187 26.556 35.2156C22.0244 35.6046 22.0707 41.2452 20.2057 47.2235C20.2057 24.9973 38.7372 26.0942 41.9123 7.04312C38.1021 22.2262 24.8241 23.554 20.783 36.7743Z" fill="#FAFAFA"/>
<path d="M20.783 36.7743C24.8241 23.554 38.1021 22.2262 41.9123 7.04312C38.7372 26.0942 20.2057 24.9973 20.2057 47.2235C22.0707 41.2452 22.0244 35.6046 26.556 35.2156C29.4426 34.1187 31.3477 33.4837 33.0219 31.2322C32.0524 31.4711 31.5089 31.4827 30.5394 31.2322C32.6394 29.7578 35.4459 27.4737 37.8297 25.0714C40.5143 22.3659 42.6628 19.5105 42.6628 17.4923C42.1289 17.9483 41.765 18.1287 40.9887 18.3006C44.2216 13.6244 46.0083 4.08952 41.5659 0C40.5559 8.50537 35.1895 13.1193 30.0978 17.3969C24.1302 22.4103 18.5401 26.9617 20.783 36.7743Z" fill="url(#paint0_linear_3271_4777)"/>
<path d="M25.8055 44.6834C23.4681 42.8681 36.1393 45.3762 36.6589 43.4133C34.8692 45.2607 23.0922 41.7969 24.9973 44.9143C27.1096 47.0485 23.5171 47.1782 21.0262 47.2214L20.9974 47.2502C23.0943 47.7671 30.1224 46.7282 25.8055 44.6834Z" fill="url(#paint1_linear_3271_4777)"/>
<defs>
<linearGradient id="paint0_linear_3271_4777" x1="0" y1="48" x2="47.8391" y2="3.92644" gradientUnits="userSpaceOnUse">
<stop stop-color="#EDE8FF"/>
<stop offset="1" stop-color="#D8EEFD"/>
</linearGradient>
<linearGradient id="paint1_linear_3271_4777" x1="0" y1="48" x2="47.8391" y2="3.92644" gradientUnits="userSpaceOnUse">
<stop stop-color="#EDE8FF"/>
<stop offset="1" stop-color="#D8EEFD"/>
</linearGradient>
</defs>
</svg>
