<svg width="274" height="263" viewBox="0 0 274 263" fill="none" xmlns="http://www.w3.org/2000/svg">
<path d="M3.388 131.94L36.9022 151.696L56.658 143.053M84.5278 260L114.161 246.947V163.691L65.1248 139.349L56.658 143.053M56.658 143.053L42.194 131.94M94.4056 127.354L43.6051 103.365L36.9022 88.901L14.3242 75.1425M94.4056 103.365L60.5386 82.5509L47.1329 53.6228M114.161 143.053V88.901L94.4056 75.1425V61.7368M84.5278 16.228L94.4056 31.0448V61.7368M94.4056 61.7368L70.7693 37.3948M137.445 99.4844V78.1411M148.734 10.5835L141.754 39.1588M141.754 39.1588L137.445 56.7978V78.1411M141.754 39.1588L124.745 12.3474M112.75 55.7395L137.445 78.1411M137.445 161.574V120.299L168.137 102.707M220.701 59.9729L195.301 87.137L168.137 102.707M168.137 102.707L155.79 82.5509M162.14 139.349L202.357 115.007L206.943 116.153M271.149 99.4844L223.524 120.299L206.943 116.153M206.943 116.153L240.81 82.5509M249.277 143.053L213.999 158.399L197.065 155.047M186.834 260L157.906 246.947L159.317 163.691L180.132 151.696L197.065 155.047M162.14 68.4396L191.389 51.5061M211.529 18.3446L202.357 45.156L191.389 51.5061M191.389 51.5061L180.132 18.3446M197.065 155.047L213.999 139.349" stroke="url(#paint0_linear_3268_4639)" stroke-width="5.64451" stroke-linecap="round"/>
<path d="M88.0556 8.11398C88.0556 12.5952 84.4228 16.228 79.9416 16.228C75.4604 16.228 71.8276 12.5952 71.8276 8.11398C71.8276 3.63275 75.4604 0 79.9416 0C84.4228 0 88.0556 3.63275 88.0556 8.11398ZM74.869 8.11398C74.869 10.9155 77.1401 13.1866 79.9416 13.1866C82.7431 13.1866 85.0142 10.9155 85.0142 8.11398C85.0142 5.31247 82.7431 3.04139 79.9416 3.04139C77.1401 3.04139 74.869 5.31247 74.869 8.11398Z" fill="#94BFFF"/>
<path d="M222.289 9.52511C222.289 14.0063 218.656 17.6391 214.175 17.6391C209.694 17.6391 206.061 14.0063 206.061 9.52511C206.061 5.04388 209.694 1.41113 214.175 1.41113C218.656 1.41113 222.289 5.04388 222.289 9.52511ZM209.102 9.52511C209.102 12.3266 211.373 14.5977 214.175 14.5977C216.976 14.5977 219.248 12.3266 219.248 9.52511C219.248 6.7236 216.976 4.45253 214.175 4.45253C211.373 4.45253 209.102 6.7236 209.102 9.52511Z" fill="#94BFFF"/>
<path d="M234.989 53.27C234.989 57.7512 231.356 61.384 226.875 61.384C222.394 61.384 218.761 57.7512 218.761 53.27C218.761 48.7888 222.394 45.156 226.875 45.156C231.356 45.156 234.989 48.7888 234.989 53.27ZM221.803 53.27C221.803 56.0715 224.074 58.3426 226.875 58.3426C229.677 58.3426 231.948 56.0715 231.948 53.27C231.948 50.4685 229.677 48.1974 226.875 48.1974C224.074 48.1974 221.803 50.4685 221.803 53.27Z" fill="#94BFFF"/>
<path d="M163.551 143.582C163.551 148.063 159.918 151.696 155.437 151.696C150.956 151.696 147.323 148.063 147.323 143.582C147.323 139.101 150.956 135.468 155.437 135.468C159.918 135.468 163.551 139.101 163.551 143.582ZM150.364 143.582C150.364 146.384 152.635 148.655 155.437 148.655C158.238 148.655 160.509 146.384 160.509 143.582C160.509 140.781 158.238 138.51 155.437 138.51C152.635 138.51 150.364 140.781 150.364 143.582Z" fill="#94BFFF"/>
<path d="M43.7815 125.237C43.7815 129.719 40.1488 133.351 35.6675 133.351C31.1863 133.351 27.5536 129.719 27.5536 125.237C27.5536 120.756 31.1863 117.123 35.6675 117.123C40.1488 117.123 43.7815 120.756 43.7815 125.237ZM30.595 125.237C30.595 128.039 32.866 130.31 35.6675 130.31C38.469 130.31 40.7401 128.039 40.7401 125.237C40.7401 122.436 38.469 120.165 35.6675 120.165C32.866 120.165 30.595 122.436 30.595 125.237Z" fill="#94BFFF"/>
<path d="M227.052 132.999C227.052 137.48 223.419 141.113 218.938 141.113C214.456 141.113 210.824 137.48 210.824 132.999C210.824 128.517 214.456 124.885 218.938 124.885C223.419 124.885 227.052 128.517 227.052 132.999ZM213.865 132.999C213.865 135.8 216.136 138.071 218.938 138.071C221.739 138.071 224.01 135.8 224.01 132.999C224.01 130.197 221.739 127.926 218.938 127.926C216.136 127.926 213.865 130.197 213.865 132.999Z" fill="#94BFFF"/>
<path d="M160.199 75.1425C160.199 79.6237 156.567 83.2564 152.085 83.2564C147.604 83.2564 143.971 79.6237 143.971 75.1425C143.971 70.6612 147.604 67.0285 152.085 67.0285C156.567 67.0285 160.199 70.6612 160.199 75.1425ZM147.013 75.1425C147.013 77.944 149.284 80.215 152.085 80.215C154.887 80.215 157.158 77.944 157.158 75.1425C157.158 72.341 154.887 70.0699 152.085 70.0699C149.284 70.0699 147.013 72.341 147.013 75.1425Z" fill="#94BFFF"/>
<defs>
<linearGradient id="paint0_linear_3268_4639" x1="3.388" y1="260" x2="252.178" y2="-7.08828" gradientUnits="userSpaceOnUse">
<stop stop-color="#EDE8FF"/>
<stop offset="1" stop-color="#D8EEFD"/>
</linearGradient>
</defs>
</svg>
